<svg xmlns="http://www.w3.org/2000/svg" data-name="Layer 1" viewBox="0 0 120 150" x="0px" y="0px"><title>maps3</title><path d="M95.42,30.09h0L68,30.54,68.13,13a1,1,0,0,0-.29-.72,1,1,0,0,0-.71-.29h-42a1,1,0,0,0-1,1l-2.3,93.38a1,1,0,0,0,1,1L63,108l34.16-.35a1,1,0,0,0,.71-.3,1,1,0,0,0,.28-.72L96.42,31.07A1,1,0,0,0,95.42,30.09ZM63,106l-39.13-.6L26.13,14h40L66,31.55a1,1,0,0,0,.29.72,1.06,1.06,0,0,0,.72.28l27.42-.44,1.67,73.56Z"/><path d="M92.85,101.9,63,102.24l-28.79-.49h0a1,1,0,0,0-1,1,1,1,0,0,0,1,1l28.81.49,29.87-.34a1,1,0,0,0,1-1A1,1,0,0,0,92.85,101.9Z"/><path d="M30.54,101.69l-3.68-.06a1,1,0,0,0-1,1,1,1,0,0,0,1,1l3.68.06h0a1,1,0,0,0,0-2Z"/><text x="0" y="135" fill="#000000" font-size="5px" font-weight="bold" font-family="'Helvetica Neue', Helvetica, Arial-Unicode, Arial, Sans-serif">Created by Ary Prasetyo</text><text x="0" y="140" fill="#000000" font-size="5px" font-weight="bold" font-family="'Helvetica Neue', Helvetica, Arial-Unicode, Arial, Sans-serif">from the Noun Project</text></svg>