<svg xmlns="http://www.w3.org/2000/svg" data-name="Layer 1" viewBox="0 0 120 150" x="0px" y="0px"><title>maps3</title><path d="M41.11,51.69l-.5,7.67-6.13,3.07a1,1,0,0,0,.45,1.89,1,1,0,0,0,.45-.1L42,60.89a1,1,0,0,0,.55-.83l.53-8.13,1.14-3.86a1,1,0,0,0-.05-.71l-1.89-4a1,1,0,0,0-1.82.85l1.74,3.71-1.07,3.59A.93.93,0,0,0,41.11,51.69Z"/><path d="M103.81,76.64l.44-1.46a1.45,1.45,0,0,0,0-.29V30.43a1,1,0,0,0-1-1H37.18a1,1,0,0,0-1,.92L36,33a1,1,0,0,0,.26.76l1.39,1.5a1,1,0,0,0,.64.31l1.29.13.15,2.93-2.11,2.48a1,1,0,0,0-.2.39l-.75,2.78a1,1,0,0,0,.14.82l2,3a1,1,0,0,0,1.38.27A1,1,0,0,0,40.47,47l-1.78-2.62.57-2.13,2.22-2.61a1,1,0,0,0,.23-.7l-.21-4.18a1,1,0,0,0-.9-.94l-1.77-.18-.83-.9.1-1.32h64.19V74.75l-.5,1.68a1,1,0,0,0,0,.7l1.6,3.51H80.79a1,1,0,0,0-.33.06L67.31,85.15l-5.12.32a.69.69,0,0,0-.2,0L55.4,87.25l-4.89-1.32a1,1,0,0,0-.63,0l-6.51,2.59L39.24,88,37.6,82.43a1,1,0,0,0-.21-.38L34.07,78.3a1,1,0,0,0-.68-.33l-7.32-.53-3.75-1.69V67.82a1.23,1.23,0,0,0,0-.2l-3-14.25a1,1,0,0,0-.13-.33L16,47.93V42.64l5.15,2.91a1.23,1.23,0,0,0,.37.12l7.63.95,4.73,1,2.89,3.09a1,1,0,1,0,1.46-1.37L35.12,46a1,1,0,0,0-.52-.29l-5.12-1.09L22,43.71l-6.47-3.65a1,1,0,0,0-1.49.87v7.28a1,1,0,0,0,.15.53L17.38,54l2.94,14v8.46a1,1,0,0,0,.59.91l4.5,2a1,1,0,0,0,.34.09l7.09.5,2.91,3.28,1.75,6a1,1,0,0,0,.84.71l5,.64h.13a.94.94,0,0,0,.37-.07L50.31,88l4.82,1.3a.92.92,0,0,0,.52,0l6.76-1.79,5.15-.32a.75.75,0,0,0,.26,0L81,82.64h24a1,1,0,0,0,.84-.46,1,1,0,0,0,.07-1Z"/><path d="M98.64,66.39a1,1,0,0,0,1-1v-27a1,1,0,0,0-2,0v27A1,1,0,0,0,98.64,66.39Z"/><path d="M97.64,74.89a1,1,0,0,0,2,0V69.64a1,1,0,0,0-2,0Z"/><text x="0" y="135" fill="#000000" font-size="5px" font-weight="bold" font-family="'Helvetica Neue', Helvetica, Arial-Unicode, Arial, Sans-serif">Created by Ary Prasetyo</text><text x="0" y="140" fill="#000000" font-size="5px" font-weight="bold" font-family="'Helvetica Neue', Helvetica, Arial-Unicode, Arial, Sans-serif">from the Noun Project</text></svg>